<svg width="20" height="28" viewBox="0 0 20 28" fill="none" xmlns="http://www.w3.org/2000/svg"><path d="M10 12a6 6 0 1 0-6-6 6.007 6.007 0 0 0 6 6Zm0-10a4 4 0 1 1 0 8 4 4 0 0 1 0-8ZM9 27a1 1 0 0 1-1 1H4a4.004 4.004 0 0 1-4-4v-1a10.005 10.005 0 0 1 13.383-9.413 1 1 0 1 1-.676 1.882A8.006 8.006 0 0 0 2 23v1a2.002 2.002 0 0 0 2 2h4a1 1 0 0 1 1 1Zm10.707-11.707-2-2A1 1 0 0 0 16 14v6.556A3.954 3.954 0 0 0 14 20a4 4 0 1 0 4 4v-7.586l.293.293a1 1 0 0 0 1.414-1.414ZM14 26a2 2 0 1 1 0-4 2 2 0 0 1 0 4Z" fill="#3F3F46"/></svg>
